<svg width="56" height="56" viewBox="0 0 56 56" fill="none" xmlns="http://www.w3.org/2000/svg">
<path d="M11.3055 27.0772C9.70594 26.2835 6.90895 28.3334 6.90895 28.3334L3.76855 30.8457C6.59491 34.5095 12.3104 41.9626 12.5617 42.4651C12.8129 42.9675 18.7378 49.1645 21.6688 52.2002L32.9742 51.2581L32.6602 44.3493C32.6602 44.3493 32.4909 41.1719 30.7759 40.2668C29.0921 39.3782 24.1811 44.0352 24.1811 44.0352C24.1811 44.0352 26.1377 38.4113 24.8092 37.4405C22.3636 35.6533 17.5863 40.8949 17.5863 40.8949L22.6109 32.4159L14.1319 37.1264L23.239 28.6474L12.5617 33.358C12.5617 33.358 13.3712 31.4551 13.1897 30.2176C12.9822 28.8025 12.5867 27.713 11.3055 27.0772Z" fill="#9353D3"/>
<path d="M34.2295 10.4332H31.4831C30.6327 10.4332 29.8222 10.7942 29.2532 11.4263L24.5414 16.6616C23.8332 17.4485 24.6732 18.6522 25.6561 18.2591L29.519 16.7139C29.519 16.7139 30.8209 14.7726 31.7172 13.5736C32.6576 12.3157 34.2295 10.4332 34.2295 10.4332Z" fill="#C9A9E9"/>
<path d="M45.849 23.7033V20.4824C45.849 20.4824 44.1856 22.2675 43.0226 23.3087C41.8526 24.3564 39.8822 25.821 39.8822 25.821L38.944 29.5742C38.693 30.5779 39.9449 31.2553 40.6479 30.4961L45.0503 25.7415C45.5637 25.187 45.849 24.4591 45.849 23.7033Z" fill="#C9A9E9"/>
<path fill-rule="evenodd" clip-rule="evenodd" d="M24.8099 25.821L23.5537 32.7299L28.5783 28.0193L27.3222 30.8456H30.7766L33.603 30.2176L34.231 29.2754C34.231 29.2754 39.5924 25.4873 42.7101 22.6806C45.8688 19.837 50.2471 14.8297 50.2471 14.8297C50.2471 14.8297 51.5051 11.6417 51.8172 9.49106C52.0399 7.9573 51.9499 5.7909 51.8765 4.6362C51.8468 4.16874 51.488 3.79647 51.0222 3.74691C49.82 3.61898 47.5046 3.41404 45.8505 3.52435C43.7381 3.66523 40.5118 4.46647 40.5118 4.46647C40.5118 4.46647 35.914 9.27992 33.2889 12.6314C30.6249 16.0326 27.0081 21.7385 27.0081 21.7385L25.752 22.9947L24.8099 25.821ZM33.5337 22.6801C34.7096 23.7561 37.5795 22.534 39.9437 19.9503C42.308 17.3666 43.2712 14.3998 42.0952 13.3237C40.9192 12.2477 38.0494 13.4698 35.6851 16.0535C33.3209 18.6372 32.3577 21.604 33.5337 22.6801Z" fill="#C9A9E9"/>
<path d="M21.9835 30.2176L10.05 35.8702C10.05 35.8702 10.4775 33.9572 10.3641 32.7299C10.2463 31.4549 10.3416 30.4804 9.42197 29.5895C8.6694 28.8604 7.94386 28.8157 6.90962 28.6474C6.0623 28.5094 4.71135 28.6474 4.71135 28.6474L6.90962 26.4491C6.90962 26.4491 8.19965 24.3699 7.53773 23.3087C6.92198 22.3216 4.71135 22.3666 4.71135 22.3666C4.71135 22.3666 5.12675 19.0785 5.6535 17.028C6.13596 15.1499 6.29376 14.019 7.2237 12.3174C8.30817 10.3331 9.36135 9.4875 10.9922 7.92091C12.8849 6.10268 13.7898 5.06921 16.3308 3.83842C18.9844 2.5531 20.6479 2.13977 23.5537 1.64016C26.5778 1.12021 28.3398 1.17864 31.4047 1.32612C34.246 1.46284 38.6276 2.26823 38.6276 2.26823C38.6276 2.26823 34.4873 0.779507 31.7187 0.384009C28.5621 -0.0669248 26.7046 -0.105435 23.5537 0.384009C20.3727 0.87814 18.5809 1.45434 15.7027 2.89631C13.1784 4.16099 11.8831 5.14533 9.73601 6.97879C8.15329 8.33035 5.9675 10.7472 5.9675 10.7472L3.14119 15.4578L1.25695 20.1684L0.628837 25.193C0.628837 25.193 0.448817 28.2636 0.628837 30.2176C0.811994 32.2056 1.03854 33.318 1.57095 35.2422C2.12984 37.2619 2.52974 38.3865 3.45519 40.2668C4.5518 42.4948 5.29406 43.7195 6.90962 45.6054C8.3212 47.2532 9.28568 48.0338 10.9921 49.3738C13.3744 51.2446 14.9864 52.4203 17.587 53.4563C20.4055 54.5792 22.1038 55.0511 25.1239 55.3406C27.9344 55.6099 29.5626 55.495 32.3468 55.0265C35.2544 54.5373 36.8987 54.077 39.5697 52.8283C41.5131 51.9197 44.2803 50.0019 44.2803 50.0019C44.2803 50.0019 48.8135 46.8302 50.8752 44.0352C52.4382 41.9162 54.0155 38.0685 54.0155 38.0685C54.0155 38.0685 55.6314 33.7484 55.8998 30.8456C56.1796 27.8199 55.8485 26.0603 55.2922 23.1036L55.2717 22.9947C54.7765 20.3624 53.3875 16.3999 53.3875 16.3999C53.3875 16.3999 54.0835 20.7888 54.3296 23.6228C54.5527 26.1915 54.0155 28.9614 54.0155 28.9614L52.4454 34.3001L49.305 40.2668C49.305 40.2668 45.9238 40.2176 44.5944 40.8948C42.1953 42.1171 41.1399 46.8616 41.1399 46.8616C41.1399 46.8616 40.0021 42.9679 37.9995 42.7791C36.4697 42.6348 34.5451 44.6633 34.5451 44.6633L31.7187 48.7458C31.7187 48.7458 30.6324 46.2635 29.2064 45.6054C27.8851 44.9956 26.8884 45.2439 25.4855 45.5936L25.438 45.6054C23.9469 45.9769 21.9835 47.4896 21.9835 47.4896C21.9835 47.4896 22.1856 45.9374 21.9835 44.9773C21.7911 44.0634 21.7226 43.4181 21.0414 42.7791C19.8786 41.6883 16.9589 42.7791 16.9589 42.7791L21.9835 35.5562L15.7027 37.7545L21.9835 30.2176Z" fill="#C9A9E9"/>
<ellipse cx="18.8416" cy="10.7472" rx="3.14039" ry="3.14037" fill="#C9A9E9"/>
<ellipse cx="47.7347" cy="30.8456" rx="1.25616" ry="1.25615" fill="#C9A9E9"/>
<ellipse cx="16.9573" cy="23.3088" rx="1.25616" ry="1.25615" fill="#C9A9E9"/>
<path d="M42.082 7.29286C42.082 7.29286 45.2312 11.1003 47.7347 10.7473C48.8209 10.5941 48.9909 10.1192 49.619 9.17708C50.8734 7.29552 51.5032 4.46652 51.5032 4.46652C51.5032 4.46652 51.805 5.55431 51.8172 6.66478C51.8308 7.89722 51.7211 8.59206 51.5032 9.80516C51.256 11.1814 51.0325 11.9431 50.5611 13.2596C50.3384 13.8813 49.933 14.8298 49.933 14.8298C49.933 14.8298 47.3641 13.6888 46.1645 12.6315C44.1743 10.8771 42.082 7.29286 42.082 7.29286Z" fill="#9353D3"/>
<path d="M42.396 22.3666C45.1525 19.8538 48.9908 15.4578 48.9908 15.4578C48.9908 15.4578 47.7984 14.9608 47.1066 14.5157C46.4461 14.0908 45.5364 13.2596 45.5364 13.2596C45.5364 13.2596 44.8441 15.8768 43.9662 17.342C42.9401 19.0546 41.9711 19.7481 40.5117 21.1105C38.9156 22.6006 37.9699 23.4125 36.1152 24.5649C34.158 25.7809 30.1484 26.4491 30.1484 26.4491C30.1484 26.4491 31.2265 27.5021 32.0327 28.0193C32.7251 28.4635 33.9169 28.9614 33.9169 28.9614C33.9169 28.9614 39.2958 25.1927 42.396 22.3666Z" fill="#9353D3"/>
<path d="M26.3789 17.6561L29.2053 16.7139C29.2053 16.7139 30.2825 14.9404 31.0895 13.8876C31.8826 12.8529 33.2878 11.3753 33.2878 11.3753L31.4035 11.6893L26.3789 17.6561Z" fill="#9353D3"/>
<path d="M45.222 23.3088L45.5361 21.4245L39.8834 27.0772L39.5693 29.2755L45.222 23.3088Z" fill="#9353D3"/>
<path d="M21.6696 10.7472C21.6126 9.97368 21.0415 8.86301 21.0415 8.86301C21.0415 8.86301 20.9211 10.0373 20.7275 10.7472C20.5831 11.2764 20.4013 11.5977 20.0994 12.0034C19.8354 12.3581 19.1573 12.6315 19.1573 12.6315L16.959 12.9455C16.959 12.9455 18.0219 13.5253 18.8432 13.5736C19.7756 13.6284 20.5107 13.4 21.0415 12.6315C21.4654 12.0176 21.7243 11.4912 21.6696 10.7472Z" fill="#9353D3"/>
<path d="M28.8913 26.7631L27.3211 24.5649L26.0649 26.4491L24.1807 31.4737L26.0649 29.9035L28.8913 27.3912V28.6474L28.2632 29.9035H30.1474L32.0316 29.2754L32.3457 28.6474L28.8913 26.7631Z" fill="white"/>
<path d="M34.2295 10.4332H31.4831C30.6327 10.4332 29.8222 10.7942 29.2532 11.4263L24.5414 16.6616C23.8332 17.4485 24.6732 18.6522 25.6561 18.2591L29.519 16.7139C29.519 16.7139 30.8209 14.7726 31.7172 13.5736C32.6576 12.3157 34.2295 10.4332 34.2295 10.4332Z" fill="#C9A9E9"/>
<path d="M45.849 23.7033V20.4824C45.849 20.4824 44.1856 22.2675 43.0226 23.3087C41.8526 24.3564 39.8822 25.821 39.8822 25.821L38.944 29.5742C38.693 30.5779 39.9449 31.2553 40.6479 30.4961L45.0503 25.7415C45.5637 25.187 45.849 24.4591 45.849 23.7033Z" fill="#C9A9E9"/>
<path fill-rule="evenodd" clip-rule="evenodd" d="M24.8099 25.821L23.5537 32.7299L28.5783 28.0193L27.3222 30.8456H30.7766L33.603 30.2176L34.231 29.2754C34.231 29.2754 39.5924 25.4873 42.7101 22.6806C45.8688 19.837 50.2471 14.8297 50.2471 14.8297C50.2471 14.8297 51.5051 11.6417 51.8172 9.49106C52.0399 7.9573 51.9499 5.7909 51.8765 4.6362C51.8468 4.16874 51.488 3.79647 51.0222 3.74691C49.82 3.61898 47.5046 3.41404 45.8505 3.52435C43.7381 3.66523 40.5118 4.46647 40.5118 4.46647C40.5118 4.46647 35.914 9.27992 33.2889 12.6314C30.6249 16.0326 27.0081 21.7385 27.0081 21.7385L25.752 22.9947L24.8099 25.821ZM33.5337 22.6801C34.7096 23.7561 37.5795 22.534 39.9437 19.9503C42.308 17.3666 43.2712 14.3998 42.0952 13.3237C40.9192 12.2477 38.0494 13.4698 35.6851 16.0535C33.3209 18.6372 32.3577 21.604 33.5337 22.6801Z" fill="#C9A9E9"/>
<path d="M21.9835 30.2176L10.05 35.8702C10.05 35.8702 10.4775 33.9572 10.3641 32.7299C10.2463 31.4549 10.3416 30.4804 9.42197 29.5895C8.6694 28.8604 7.94386 28.8157 6.90962 28.6474C6.0623 28.5094 4.71135 28.6474 4.71135 28.6474L6.90962 26.4491C6.90962 26.4491 8.19965 24.3699 7.53773 23.3087C6.92198 22.3216 4.71135 22.3666 4.71135 22.3666C4.71135 22.3666 5.12675 19.0785 5.6535 17.028C6.13596 15.1499 6.29376 14.019 7.2237 12.3174C8.30817 10.3331 9.36135 9.4875 10.9922 7.92091C12.8849 6.10268 13.7898 5.06921 16.3308 3.83842C18.9844 2.5531 20.6479 2.13977 23.5537 1.64016C26.5778 1.12021 28.3398 1.17864 31.4047 1.32612C34.246 1.46284 38.6276 2.26823 38.6276 2.26823C38.6276 2.26823 34.4873 0.779507 31.7187 0.384009C28.5621 -0.0669248 26.7046 -0.105435 23.5537 0.384009C20.3727 0.87814 18.5809 1.45434 15.7027 2.89631C13.1784 4.16099 11.8831 5.14533 9.73601 6.97879C8.15329 8.33035 5.9675 10.7472 5.9675 10.7472L3.14119 15.4578L1.25695 20.1684L0.628837 25.193C0.628837 25.193 0.448817 28.2636 0.628837 30.2176C0.811994 32.2056 1.03854 33.318 1.57095 35.2422C2.12984 37.2619 2.52974 38.3865 3.45519 40.2668C4.5518 42.4948 5.29406 43.7195 6.90962 45.6054C8.3212 47.2532 9.28568 48.0338 10.9921 49.3738C13.3744 51.2446 14.9864 52.4203 17.587 53.4563C20.4055 54.5792 22.1038 55.0511 25.1239 55.3406C27.9344 55.6099 29.5626 55.495 32.3468 55.0265C35.2544 54.5373 36.8987 54.077 39.5697 52.8283C41.5131 51.9197 44.2803 50.0019 44.2803 50.0019C44.2803 50.0019 48.8135 46.8302 50.8752 44.0352C52.4382 41.9162 54.0155 38.0685 54.0155 38.0685C54.0155 38.0685 55.6314 33.7484 55.8998 30.8456C56.1796 27.8199 55.8485 26.0603 55.2922 23.1036L55.2717 22.9947C54.7765 20.3624 53.3875 16.3999 53.3875 16.3999C53.3875 16.3999 54.0835 20.7888 54.3296 23.6228C54.5527 26.1915 54.0155 28.9614 54.0155 28.9614L52.4454 34.3001L49.305 40.2668C49.305 40.2668 45.9238 40.2176 44.5944 40.8948C42.1953 42.1171 41.1399 46.8616 41.1399 46.8616C41.1399 46.8616 40.0021 42.9679 37.9995 42.7791C36.4697 42.6348 34.5451 44.6633 34.5451 44.6633L31.7187 48.7458C31.7187 48.7458 30.6324 46.2635 29.2064 45.6054C27.8851 44.9956 26.8884 45.2439 25.4855 45.5936L25.438 45.6054C23.9469 45.9769 21.9835 47.4896 21.9835 47.4896C21.9835 47.4896 22.1856 45.9374 21.9835 44.9773C21.7911 44.0634 21.7226 43.4181 21.0414 42.7791C19.8786 41.6883 16.9589 42.7791 16.9589 42.7791L21.9835 35.5562L15.7027 37.7545L21.9835 30.2176Z" fill="#C9A9E9"/>
<ellipse cx="18.8416" cy="10.7472" rx="3.14039" ry="3.14037" fill="#C9A9E9"/>
<ellipse cx="47.7347" cy="30.8456" rx="1.25616" ry="1.25615" fill="#C9A9E9"/>
<ellipse cx="16.9573" cy="23.3088" rx="1.25616" ry="1.25615" fill="#C9A9E9"/>
<path d="M42.082 7.29286C42.082 7.29286 45.2312 11.1003 47.7347 10.7473C48.8209 10.5941 48.9909 10.1192 49.619 9.17708C50.8734 7.29552 51.5032 4.46652 51.5032 4.46652C51.5032 4.46652 51.805 5.55431 51.8172 6.66478C51.8308 7.89722 51.7211 8.59206 51.5032 9.80516C51.256 11.1814 51.0325 11.9431 50.5611 13.2596C50.3384 13.8813 49.933 14.8298 49.933 14.8298C49.933 14.8298 47.3641 13.6888 46.1645 12.6315C44.1743 10.8771 42.082 7.29286 42.082 7.29286Z" fill="#9353D3"/>
<path d="M42.396 22.3666C45.1525 19.8538 48.9908 15.4578 48.9908 15.4578C48.9908 15.4578 47.7984 14.9608 47.1066 14.5157C46.4461 14.0908 45.5364 13.2596 45.5364 13.2596C45.5364 13.2596 44.8441 15.8768 43.9662 17.342C42.9401 19.0546 41.9711 19.7481 40.5117 21.1105C38.9156 22.6006 37.9699 23.4125 36.1152 24.5649C34.158 25.7809 30.1484 26.4491 30.1484 26.4491C30.1484 26.4491 31.2265 27.5021 32.0327 28.0193C32.7251 28.4635 33.9169 28.9614 33.9169 28.9614C33.9169 28.9614 39.2958 25.1927 42.396 22.3666Z" fill="#9353D3"/>
<path d="M26.3789 17.6561L29.2053 16.7139C29.2053 16.7139 30.2825 14.9404 31.0895 13.8876C31.8826 12.8529 33.2878 11.3753 33.2878 11.3753L31.4035 11.6893L26.3789 17.6561Z" fill="#9353D3"/>
<path d="M45.222 23.3088L45.5361 21.4245L39.8834 27.0772L39.5693 29.2755L45.222 23.3088Z" fill="#9353D3"/>
<path d="M21.6696 10.7472C21.6126 9.97368 21.0415 8.86301 21.0415 8.86301C21.0415 8.86301 20.9211 10.0373 20.7275 10.7472C20.5831 11.2764 20.4013 11.5977 20.0994 12.0034C19.8354 12.3581 19.1573 12.6315 19.1573 12.6315L16.959 12.9455C16.959 12.9455 18.0219 13.5253 18.8432 13.5736C19.7756 13.6284 20.5107 13.4 21.0415 12.6315C21.4654 12.0176 21.7243 11.4912 21.6696 10.7472Z" fill="#9353D3"/>
<path d="M28.8913 26.7631L27.3211 24.5649L26.0649 26.4491L24.1807 31.4737L26.0649 29.9035L28.8913 27.3912V28.6474L28.2632 29.9035H30.1474L32.0316 29.2754L32.3457 28.6474L28.8913 26.7631Z" fill="white"/>
<ellipse cx="0.874867" cy="1.71862" rx="0.874867" ry="1.71862" transform="matrix(0.190559 0.981676 -0.981676 0.190557 47.3398 3.83841)" fill="white"/>
<ellipse cx="0.87487" cy="6.11953" rx="0.87487" ry="6.11953" transform="matrix(0.767135 0.641485 -0.64149 0.767132 38.6279 6.97882)" fill="white"/>
<ellipse cx="0.322302" cy="4.5238" rx="0.322302" ry="4.5238" transform="matrix(0.767135 0.641485 -0.64149 0.767132 29.6709 10.7473)" fill="white"/>
<ellipse cx="1.15811" cy="1.15911" rx="1.15811" ry="1.15911" transform="matrix(0.767135 0.641485 -0.64149 0.767132 17.8174 7.60687)" fill="white"/>
<ellipse cx="0.673194" cy="1.62178" rx="0.673194" ry="1.62178" transform="matrix(-0.172191 0.985064 -0.985064 -0.172189 7.23828 23.2391)" fill="white"/>
<ellipse cx="0.663032" cy="1.71783" rx="0.663032" ry="1.71783" transform="matrix(-0.430822 0.902437 -0.902439 -0.430817 9.9209 30.0777)" fill="white"/>
<ellipse cx="0.663031" cy="1.00048" rx="0.663031" ry="1.00048" transform="matrix(-0.10574 0.994394 -0.994394 -0.105739 20.9727 42.9906)" fill="white"/>
<ellipse cx="0.663031" cy="1.91745" rx="0.663031" ry="1.91745" transform="matrix(0.129689 0.991555 -0.991555 0.129688 28.2979 45.2914)" fill="white"/>
<ellipse cx="0.889677" cy="1.91744" rx="0.889677" ry="1.91744" transform="matrix(0.608951 0.793208 -0.793212 0.608946 37.5859 42.7791)" fill="white"/>
<ellipse cx="0.653071" cy="1.46786" rx="0.653071" ry="1.46786" transform="matrix(0.759415 0.650606 -0.650611 0.759411 44.5762 40.8948)" fill="white"/>
</svg>
